<?xml version="1.0" encoding="utf-8"?>
<!-- Generator: Adobe Illustrator 22.0.1, SVG Export Plug-In . SVG Version: 6.00 Build 0)  -->
<svg version="1.1" id="Livello_1" xmlns="http://www.w3.org/2000/svg" xmlns:xlink="http://www.w3.org/1999/xlink" x="0px" y="0px"
	 viewBox="0 0 223.1 128.5" style="enable-background:new 0 0 223.1 128.5;" xml:space="preserve">
<style type="text/css">
	.st0{fill:#3BB44A;}
	.st1{fill:#231F20;}
</style>
<title>logo kart&amp;amp;go</title>
<g>
	<g id="Livello_2_1_">
		<g id="Label_Pubblicità">
			<g>
				<path class="st0" d="M57.5,53c3-8.2,1.4-17.5-4.2-24.2l59.7,8.7c-0.7,2.3-1.1,4.7-1.1,7.1c0,2.9,0.5,5.8,1.5,8.5L57.5,53z"/>
			</g>
			<g>
				<path class="st0" d="M159.6,53c1.1-2.7,1.7-5.6,1.8-8.5c0-2.3-0.3-4.6-1-6.8h10.2L130.9,13c2.8-4.3,5.6-8.7,8.4-13l82.2,53
					H159.6z"/>
			</g>
			<g>
				<path d="M44.7,98.4H35L27.2,87v11.4h-8V64.2c2.4,1.8,5.1,3.2,8,4.1v14.2L35,71.7h9.4L33.9,85L44.7,98.4z"/>
			</g>
			<g>
				<path d="M62.7,72.8c1.4,0.9,2.5,2.2,3.2,3.8v-4.8h8v26.7h-8v-4.8c-0.7,1.6-1.8,2.9-3.2,3.8c-1.5,1-3.3,1.4-5.2,1.4
					c-2.1,0-4.1-0.5-5.8-1.7c-1.8-1.2-3.1-2.8-4-4.8c-2-4.7-2-9.9,0-14.6c0.9-1.9,2.2-3.6,4-4.7c1.7-1.1,3.7-1.7,5.8-1.7
					C59.3,71.3,61.1,71.8,62.7,72.8z M55.9,80.2c-2.1,2.8-2.1,6.7,0,9.6c2.2,2.3,5.9,2.3,8.2,0.1l0.1-0.1c2.2-2.8,2.2-6.7,0-9.5
					C62,78,58.3,78,55.9,80.2C56,80.3,56,80.3,55.9,80.2L55.9,80.2z"/>
			</g>
			<g>
				<path d="M91.2,72.8c1.5-0.9,3.3-1.4,5.1-1.4v8.8H94c-1.8-0.1-3.5,0.4-4.9,1.4c-1.2,0.9-1.8,2.5-1.8,4.7v12.2h-8V71.7h8v5
					C88.3,75.1,89.6,73.8,91.2,72.8z"/>
			</g>
			<g>
				<path d="M114.5,91.3v7h-3.6c-3.1,0-5.4-0.8-7.1-2.3c-1.7-1.6-2.6-4.1-2.6-7.7v-9.8h-3.5v-6.9h3.5V65h8v6.6h5.2v6.9h-5.2v10
					c-0.1,0.8,0.1,1.6,0.6,2.2c0.6,0.5,1.4,0.7,2.1,0.6L114.5,91.3z"/>
			</g>
			<g>
				<path d="M144.5,98.4l-5.1-6c-0.2,0.5-0.4,1-0.7,1.5c-0.6,1.5-1.6,2.7-3,3.5c-1.5,0.9-3.2,1.4-5,1.3c-1.9,0-3.9-0.4-5.6-1.3
					c-1.5-0.9-2.8-2.1-3.7-3.7c-0.9-1.6-1.3-3.4-1.3-5.3c0-1.8,0.3-3.5,1.1-5.1c1.4-2.8,4.2-4.7,7.4-4.8l-0.6-0.9
					c-0.6-0.8-1.1-1.7-1.4-2.7c-0.4-0.9-0.5-1.9-0.5-2.9c0-1.4,0.4-2.7,1.1-3.8c0.8-1.2,1.9-2.3,3.2-2.9c1.6-0.8,3.3-1.1,5-1.1
					c2.3-0.1,4.6,0.5,6.5,1.9c1.5,1.2,2.6,3,3,4.9c0.3,1,0.5,2,0.5,3.1V75h-6.2c0-0.5,0-1.1-0.1-1.6c0-1-0.3-1.9-1-2.7
					c-0.7-0.6-1.6-1-2.5-0.9c-0.9,0-1.7,0.3-2.3,0.9s-0.9,1.3-0.9,2.1c0,0.7,0.1,1.3,0.4,1.9c0.4,0.7,0.9,1.4,1.4,2l17,21.6
					L144.5,98.4L144.5,98.4z M134.2,91.8c0.9-0.9,1.3-2,1.3-3.3S135,85.9,134,85c-0.9-0.9-2.2-1.4-3.5-1.4c-2.3-0.1-4.3,1.7-4.5,4
					c0,0.2,0,0.4,0,0.6c-0.1,1.3,0.5,2.6,1.4,3.5s2.2,1.3,3.4,1.3C132.1,93.1,133.3,92.6,134.2,91.8z"/>
				<path class="st0" d="M180.3,67.3c2.7,2.1,4.5,5.1,5.1,8.4h-8.6c-0.6-1.2-1.5-2.2-2.6-2.9c-3.4-1.9-7.6-1.3-10.4,1.5
					c-1.6,2-2.4,4.5-2.3,7c0,3.2,0.8,5.7,2.4,7.4c1.8,1.8,4.4,2.7,6.9,2.6c1.8,0,3.6-0.5,5.1-1.6s2.6-2.7,3.1-4.6h-10.2v-5.8h17v8.1
					c-0.6,2-1.7,3.9-3,5.5c-1.5,1.7-3.3,3.1-5.3,4.1c-2.3,1.1-4.8,1.6-7.4,1.6c-3.1,0.1-6.1-0.7-8.9-2.2c-2.5-1.4-4.5-3.5-5.9-6.1
					c-2.7-5.6-2.7-12.2,0-17.9c1.3-2.6,3.3-4.7,5.8-6.1c2.7-1.5,5.7-2.2,8.8-2.2C173.6,64.1,177.3,65.2,180.3,67.3z"/>
				<path class="st0" d="M214.8,66.3c2.6,1.5,4.7,3.6,6.1,6.2c3,5.6,3,12.3,0,17.9c-1.4,2.6-3.5,4.7-6.1,6.2c-5.3,3-11.8,3-17.1,0
					c-2.6-1.5-4.7-3.6-6.1-6.2c-3-5.6-3-12.3,0-17.9c1.4-2.6,3.6-4.7,6.1-6.2C203,63.3,209.5,63.3,214.8,66.3L214.8,66.3z
					 M199.9,74.3c-1.6,2-2.5,4.5-2.3,7.1c-0.1,2.6,0.7,5.1,2.3,7.1c3.4,3.5,9.1,3.5,12.5,0.1c0,0,0,0,0.1-0.1c1.7-2,2.5-4.5,2.4-7.1
					c0.1-2.6-0.7-5.1-2.4-7.1c-1.6-1.8-3.9-2.7-6.3-2.6C203.8,71.6,201.5,72.5,199.9,74.3L199.9,74.3z"/>
			</g>
			<g>
				<circle cx="34.3" cy="44.5" r="17.5"/>
			</g>
			<g>
				<path d="M136.6,62.1c-9.7,0-17.6-7.8-17.6-17.5S126.8,27,136.5,27s17.6,7.8,17.6,17.5l0,0C154.1,54.2,146.3,62.1,136.6,62.1z"/>
			</g>
			<g>
				<path class="st1" d="M26.3,123.5l-4-4.7v4.7h-1.7v-14h1.7v8.2l3.9-4.5h2.1l-4.6,5.2l4.8,5.2L26.3,123.5z"/>
				<path class="st1" d="M36.8,113.8c0.7,0.5,1.2,1.2,1.5,2v-2.7H40v10.4h-1.7v-2.7c-0.3,0.8-0.8,1.5-1.5,2
					c-0.8,0.5-1.7,0.8-2.6,0.8c-0.9,0-1.7-0.2-2.5-0.7c-0.7-0.4-1.3-1.1-1.7-1.8c-0.4-0.9-0.6-1.9-0.6-2.8c0-1,0.2-2,0.6-2.8
					s1-1.4,1.7-1.9c0.7-0.4,1.6-0.7,2.5-0.6C35.2,112.9,36.1,113.2,36.8,113.8z M32.2,115.5c-0.7,0.8-1,1.8-1,2.8
					c-0.1,1,0.3,2,1,2.8c0.7,0.7,1.6,1.1,2.5,1c0.6,0,1.3-0.2,1.8-0.5s1-0.8,1.3-1.3c0.6-1.3,0.6-2.7,0-4c-0.3-0.5-0.7-1-1.3-1.3
					s-1.2-0.5-1.8-0.5C33.8,114.5,32.8,114.9,32.2,115.5z"/>
				<path class="st1" d="M46,113.6c0.7-0.4,1.5-0.6,2.4-0.6v1.9h-0.5c-0.9,0-1.7,0.2-2.4,0.8c-0.7,0.6-1,1.5-0.9,2.5v5.5h-1.8v-10.4
					h1.7v2.1C44.8,114.5,45.3,113.9,46,113.6z"/>
				<path class="st1" d="M55,122v1.5h-1.3c-0.9,0.1-1.7-0.2-2.4-0.8c-0.6-0.7-0.9-1.6-0.8-2.6v-5.6H49V113h1.5v-2.6h1.8v2.6H55v1.5
					h-2.7v5.7c-0.1,0.5,0.1,1,0.4,1.4c0.4,0.3,0.8,0.4,1.3,0.4H55z"/>
				<path class="st1" d="M70,113.6c0.7,0.4,1.3,1.1,1.7,1.9c0.4,0.9,0.6,1.9,0.6,2.8c0,1-0.2,1.9-0.6,2.8c-0.4,0.8-1,1.4-1.7,1.8
					s-1.6,0.7-2.5,0.7s-1.8-0.2-2.6-0.8c-0.7-0.5-1.2-1.2-1.5-2v7.6h-1.7V113h1.7v2.7c0.3-0.8,0.8-1.5,1.5-2
					c0.8-0.5,1.7-0.8,2.6-0.8C68.4,113,69.3,113.2,70,113.6z M65.2,115c-0.5,0.3-1,0.8-1.3,1.3c-0.6,1.3-0.6,2.7,0,4
					c0.3,0.6,0.7,1,1.3,1.3s1.2,0.5,1.8,0.5c1,0.1,1.9-0.3,2.6-1c0.7-0.8,1.1-1.8,1-2.8c0-1-0.3-2-1-2.8c-0.7-0.7-1.6-1.1-2.6-1
					C66.4,114.5,65.8,114.7,65.2,115z"/>
				<path class="st1" d="M81.4,113.8c0.7,0.5,1.2,1.2,1.5,2v-2.7h1.7v10.4h-1.7v-2.7c-0.3,0.8-0.8,1.5-1.5,2
					c-0.8,0.5-1.7,0.8-2.6,0.8s-1.7-0.2-2.5-0.7c-0.7-0.4-1.3-1.1-1.7-1.8c-0.4-0.9-0.6-1.9-0.6-2.8c0-1,0.2-2,0.6-2.8
					s1-1.4,1.7-1.9c0.7-0.4,1.6-0.7,2.5-0.6C79.8,112.9,80.7,113.2,81.4,113.8z M76.8,115.5c-0.7,0.8-1,1.8-1,2.8
					c-0.1,1,0.3,2,1,2.8c0.7,0.7,1.6,1,2.5,1c0.6,0,1.3-0.2,1.8-0.5s1-0.8,1.3-1.3c0.6-1.3,0.6-2.7,0-4c-0.3-0.6-0.7-1-1.3-1.3
					c-0.6-0.3-1.2-0.5-1.8-0.5C78.4,114.5,77.4,114.9,76.8,115.5z"/>
				<path class="st1" d="M90.6,113.6c0.7-0.4,1.5-0.6,2.3-0.6v1.9h-0.5c-0.9,0-1.7,0.2-2.4,0.8c-0.7,0.6-1,1.5-0.9,2.5v5.5h-1.7
					v-10.4h1.7v2.1C89.4,114.5,89.9,113.9,90.6,113.6z"/>
				<path class="st1" d="M99.6,122v1.5h-1.3c-0.9,0.1-1.7-0.2-2.4-0.8c-0.6-0.7-0.9-1.6-0.8-2.6v-5.6h-1.6V113h1.6v-2.6h1.8v2.6h2.7
					v1.5h-2.7v5.7c-0.1,0.5,0.1,1,0.4,1.4c0.4,0.3,0.8,0.4,1.3,0.4H99.6z"/>
				<path class="st1" d="M107.8,113.9c0.7,0.6,1.2,1.5,1.3,2.5h-1.7c-0.1-0.6-0.3-1.1-0.8-1.5s-1.1-0.6-1.8-0.6
					c-0.5,0-1,0.1-1.4,0.4s-0.5,0.7-0.5,1.2c0,0.3,0.1,0.7,0.3,0.9c0.2,0.2,0.5,0.4,0.9,0.5c0.5,0.2,0.9,0.3,1.4,0.4
					c0.6,0.1,1.3,0.3,1.9,0.5c0.5,0.2,0.9,0.5,1.2,0.9c0.4,0.5,0.5,1,0.5,1.6c0,0.8-0.4,1.6-1,2.1c-0.7,0.6-1.6,0.8-2.6,0.8
					c-1.1,0-2.1-0.3-3-0.9c-0.8-0.6-1.3-1.5-1.4-2.5h1.7c0,0.6,0.3,1.2,0.8,1.5c0.6,0.4,1.2,0.6,1.9,0.6c0.5,0,1-0.1,1.4-0.5
					c0.3-0.3,0.5-0.7,0.5-1.2c0-0.4-0.1-0.7-0.4-1c-0.2-0.3-0.6-0.4-0.9-0.6c-0.5-0.2-1-0.3-1.5-0.4c-0.6-0.1-1.2-0.3-1.8-0.5
					c-0.5-0.2-0.9-0.5-1.2-0.8c-0.3-0.4-0.5-1-0.5-1.6c0-0.8,0.4-1.6,1-2.1c0.8-0.6,1.7-0.9,2.6-0.8
					C106,112.9,107,113.3,107.8,113.9z"/>
				<path class="st1" d="M123,113.8c0.7,0.5,1.2,1.2,1.5,2v-6.2h1.7v14h-1.7v-2.7c-0.3,0.8-0.8,1.5-1.5,2c-0.8,0.5-1.7,0.8-2.6,0.8
					s-1.7-0.2-2.5-0.7c-0.7-0.4-1.3-1.1-1.7-1.8c-0.4-0.9-0.6-1.9-0.6-2.8c0-1,0.2-2,0.6-2.8s1-1.4,1.7-1.9c0.7-0.4,1.6-0.7,2.5-0.6
					C121.4,112.9,122.3,113.2,123,113.8z M118.4,115.5c-0.7,0.8-1,1.8-1,2.8c-0.1,1,0.3,2,1,2.8c0.7,0.7,1.6,1,2.6,1
					c0.6,0,1.3-0.2,1.8-0.5s1-0.8,1.3-1.3c0.6-1.3,0.6-2.7,0-4c-0.3-0.6-0.7-1-1.3-1.3c-0.6-0.3-1.2-0.5-1.8-0.5
					C120,114.5,119.1,114.8,118.4,115.5z"/>
				<path class="st1" d="M129,109.3c0.5-0.4,1.2-0.4,1.7,0c0.2,0.2,0.3,0.5,0.3,0.8s-0.1,0.6-0.3,0.8c-0.5,0.4-1.2,0.4-1.7,0
					c-0.2-0.2-0.3-0.5-0.3-0.8S128.8,109.5,129,109.3z M130.7,113.1v10.4H129v-10.4H130.7z"/>
				<path class="st1" d="M139.6,113.9c0.7,0.6,1.2,1.5,1.3,2.5h-1.7c-0.1-0.6-0.3-1.1-0.8-1.5s-1.1-0.6-1.8-0.6
					c-0.5,0-1,0.1-1.5,0.4c-0.3,0.3-0.5,0.7-0.5,1.2c0,0.3,0.1,0.7,0.3,0.9c0.3,0.2,0.6,0.4,0.9,0.5c0.5,0.2,0.9,0.3,1.4,0.4
					c0.6,0.1,1.3,0.3,1.9,0.5c0.5,0.2,0.9,0.5,1.2,0.9c0.4,0.5,0.5,1,0.5,1.6c0,0.8-0.4,1.6-1,2.1c-0.7,0.6-1.6,0.8-2.6,0.8
					c-1.1,0-2.1-0.3-3-0.9c-0.8-0.6-1.3-1.5-1.4-2.5h1.7c0.1,0.6,0.4,1.2,0.8,1.5c0.6,0.4,1.2,0.6,1.9,0.6c0.5,0,1-0.1,1.4-0.5
					c0.3-0.3,0.5-0.7,0.5-1.2c0-0.4-0.1-0.7-0.4-1c-0.3-0.2-0.6-0.4-0.9-0.6c-0.5-0.2-1-0.3-1.5-0.4c-0.6-0.1-1.2-0.3-1.9-0.5
					c-0.5-0.2-0.9-0.5-1.2-0.8c-0.3-0.4-0.5-1-0.5-1.6c0-0.8,0.4-1.6,1-2.1c0.7-0.5,1.7-0.8,2.6-0.8
					C137.8,112.9,138.8,113.3,139.6,113.9z"/>
				<path class="st1" d="M148.3,122v1.5H147c-0.9,0.1-1.7-0.2-2.4-0.8c-0.6-0.7-0.9-1.6-0.8-2.6v-5.6h-1.6V113h1.6v-2.6h1.7v2.6h2.7
					v1.5h-2.7v5.7c-0.1,0.5,0.1,1,0.4,1.4c0.4,0.3,0.8,0.4,1.3,0.4H148.3z"/>
				<path class="st1" d="M153.6,113.6c0.7-0.4,1.5-0.6,2.4-0.6v1.9h-0.5c-0.9,0-1.7,0.2-2.4,0.8c-0.7,0.6-1,1.5-0.9,2.5v5.5h-1.7
					v-10.4h1.7v2.1C152.4,114.5,152.9,113.9,153.6,113.6z"/>
				<path class="st1" d="M157.7,109.3c0.5-0.4,1.2-0.4,1.7,0c0.2,0.2,0.3,0.5,0.3,0.8s-0.1,0.6-0.3,0.8c-0.5,0.4-1.2,0.4-1.7,0
					c-0.2-0.2-0.3-0.5-0.3-0.8C157.3,109.8,157.4,109.5,157.7,109.3z M159.4,113.1v10.4h-1.7v-10.4H159.4z"/>
				<path class="st1" d="M170.4,113.6c0.7,0.4,1.3,1.1,1.7,1.9c0.4,0.9,0.6,1.9,0.6,2.8c0,1-0.2,1.9-0.6,2.8c-0.4,0.8-1,1.4-1.7,1.8
					s-1.6,0.7-2.5,0.7s-1.8-0.2-2.6-0.8c-0.7-0.5-1.2-1.2-1.5-2v2.7h-1.7v-14h1.7v6.3c0.3-0.8,0.8-1.5,1.5-2
					c0.8-0.5,1.7-0.8,2.6-0.8C168.7,113,169.6,113.2,170.4,113.6z M165.6,115c-0.5,0.3-1,0.8-1.3,1.3c-0.6,1.3-0.6,2.7,0,4
					c0.3,0.6,0.7,1,1.3,1.3s1.2,0.5,1.8,0.5c1,0.1,1.9-0.3,2.6-1c0.7-0.8,1.1-1.8,1-2.8c0-1-0.3-2-1-2.8c-0.7-0.7-1.6-1.1-2.6-1
					C166.8,114.5,166.1,114.7,165.6,115z"/>
				<path class="st1" d="M184.2,113.1v10.4h-1.7v-2.4c-0.2,0.8-0.7,1.5-1.4,1.9c-0.7,0.5-1.5,0.7-2.4,0.7c-1.1,0-2.2-0.4-2.9-1.2
					c-0.8-0.9-1.2-2.1-1.1-3.3v-6.1h1.7v5.9c-0.1,0.9,0.2,1.7,0.8,2.4c0.6,0.6,1.4,0.9,2.2,0.8c0.9,0,1.7-0.3,2.3-0.9
					c0.6-0.8,0.9-1.7,0.9-2.7v-5.5L184.2,113.1z"/>
				<path class="st1" d="M191.9,122v1.5h-1.3c-0.9,0.1-1.7-0.2-2.4-0.8c-0.6-0.7-0.9-1.6-0.8-2.6v-5.6h-1.6V113h1.6v-2.6h1.7v2.6
					h2.7v1.5h-2.7v5.7c-0.1,0.5,0.1,1,0.4,1.4c0.4,0.3,0.8,0.4,1.3,0.4H191.9z"/>
				<path class="st1" d="M194,109.3c0.2-0.2,0.5-0.3,0.9-0.3c0.3,0,0.6,0.1,0.9,0.3c0.2,0.2,0.3,0.5,0.3,0.8s-0.1,0.6-0.3,0.8
					c-0.2,0.2-0.5,0.3-0.9,0.3c-0.3,0-0.6-0.1-0.9-0.3c-0.2-0.2-0.3-0.5-0.3-0.8S193.8,109.5,194,109.3z M195.8,113.1v10.4H194
					v-10.4H195.8z"/>
				<path class="st1" d="M205.9,113.6c0.8,0.4,1.4,1.1,1.9,1.9c0.5,0.9,0.7,1.9,0.7,2.8c0,1-0.2,2-0.7,2.8c-0.4,0.8-1.1,1.4-1.9,1.8
					c-1.7,0.9-3.7,0.9-5.4,0c-0.8-0.4-1.4-1.1-1.9-1.8c-0.5-0.9-0.7-1.8-0.7-2.8s0.2-2,0.7-2.8c0.4-0.8,1.1-1.4,1.9-1.9
					C202.2,112.8,204.2,112.8,205.9,113.6L205.9,113.6z M201.5,114.9c-0.5,0.3-1,0.7-1.3,1.3c-0.3,0.7-0.5,1.4-0.5,2.1
					s0.1,1.5,0.5,2.1c0.3,0.5,0.7,1,1.3,1.3c0.5,0.3,1.1,0.4,1.7,0.4c0.6,0,1.2-0.1,1.7-0.4s1-0.7,1.3-1.3c0.3-0.6,0.5-1.4,0.5-2.1
					s-0.1-1.5-0.5-2.1c-0.3-0.5-0.7-1-1.3-1.3c-0.5-0.3-1.1-0.4-1.7-0.4S202.1,114.6,201.5,114.9z"/>
				<path class="st1" d="M219.1,114.1c0.8,0.9,1.2,2.1,1.1,3.4v6h-1.7v-5.9c0.1-0.9-0.2-1.7-0.8-2.4c-0.6-0.6-1.4-0.9-2.2-0.8
					c-0.9,0-1.7,0.3-2.3,0.9c-0.6,0.8-0.9,1.7-0.9,2.7v5.5h-1.7v-10.4h1.7v2.5c0.2-0.8,0.7-1.5,1.4-2s1.5-0.7,2.3-0.7
					C217.3,112.9,218.4,113.3,219.1,114.1z"/>
			</g>
		</g>
	</g>
</g>
</svg>
